<mxfile host="Electron" modified="2024-03-10T09:22:38.652Z" agent="Mozilla/5.0 (X11; Linux x86_64) AppleWebKit/537.36 (KHTML, like Gecko) draw.io/23.1.5 Chrome/120.0.6099.109 Electron/28.1.0 Safari/537.36" etag="N2W645ZIWJAnqZ-xB04Z" version="23.1.5" type="device">
  <diagram name="Page-1" id="UzRjcfvL0TxUmaXiZzJW">
    <mxGraphModel dx="1362" dy="651" grid="1" gridSize="10" guides="1" tooltips="1" connect="1" arrows="1" fold="1" page="1" pageScale="1" pageWidth="850" pageHeight="1100" math="0" shadow="0">
      <root>
        <mxCell id="0" />
        <mxCell id="1" parent="0" />
        <mxCell id="Thf9IgCHWVcL3LoqhQcr-4" value="" style="edgeStyle=orthogonalEdgeStyle;rounded=0;orthogonalLoop=1;jettySize=auto;html=1;" parent="1" source="Thf9IgCHWVcL3LoqhQcr-1" target="Thf9IgCHWVcL3LoqhQcr-3" edge="1">
          <mxGeometry relative="1" as="geometry" />
        </mxCell>
        <mxCell id="Thf9IgCHWVcL3LoqhQcr-1" value="ImageInfo" style="rounded=0;whiteSpace=wrap;html=1;" parent="1" vertex="1">
          <mxGeometry x="340" y="460" width="120" height="60" as="geometry" />
        </mxCell>
        <mxCell id="Thf9IgCHWVcL3LoqhQcr-10" value="" style="edgeStyle=orthogonalEdgeStyle;rounded=0;orthogonalLoop=1;jettySize=auto;html=1;" parent="1" source="Thf9IgCHWVcL3LoqhQcr-3" target="Thf9IgCHWVcL3LoqhQcr-8" edge="1">
          <mxGeometry relative="1" as="geometry" />
        </mxCell>
        <mxCell id="Thf9IgCHWVcL3LoqhQcr-3" value="DowloadTask" style="whiteSpace=wrap;html=1;rounded=0;" parent="1" vertex="1">
          <mxGeometry x="435" y="310" width="120" height="60" as="geometry" />
        </mxCell>
        <mxCell id="Thf9IgCHWVcL3LoqhQcr-6" value="" style="edgeStyle=orthogonalEdgeStyle;rounded=0;orthogonalLoop=1;jettySize=auto;html=1;entryX=1;entryY=0.5;entryDx=0;entryDy=0;" parent="1" source="Thf9IgCHWVcL3LoqhQcr-5" target="Thf9IgCHWVcL3LoqhQcr-3" edge="1">
          <mxGeometry relative="1" as="geometry" />
        </mxCell>
        <mxCell id="Thf9IgCHWVcL3LoqhQcr-5" value="DownloadStatus" style="rounded=0;whiteSpace=wrap;html=1;" parent="1" vertex="1">
          <mxGeometry x="515" y="460" width="120" height="60" as="geometry" />
        </mxCell>
        <mxCell id="Thf9IgCHWVcL3LoqhQcr-8" value="DownloadStratagyFactory&lt;span id=&quot;docs-internal-guid-088ead5f-7fff-c31c-c101-24767efb26b8&quot;&gt;&lt;/span&gt;" style="rounded=0;whiteSpace=wrap;html=1;" parent="1" vertex="1">
          <mxGeometry x="400" y="190" width="190" height="60" as="geometry" />
        </mxCell>
      </root>
    </mxGraphModel>
  </diagram>
</mxfile>
